<svg xmlns="http://www.w3.org/2000/svg" width="128" height="128" viewBox="0 0 128 128"><rect width="128" height="128" fill="#bdbbb0"/><rect x="0" y="0" width="128" height="2" fill="#85877f"/><rect x="0" y="0" width="2" height="128" fill="#85877f"/><rect x="2" y="2" width="126" height="2" fill="#d0cec3"/><rect x="2" y="2" width="2" height="126" fill="#d0cec3"/><rect x="3" y="3" width="122" height="122" fill="#d9b644"/><polygon points="-128,4 -115,4 5,123 -8,123" fill="#3c4348"/><polygon points="-96,4 -83,4 37,123 24,123" fill="#3c4348"/><polygon points="-64,4 -51,4 69,123 56,123" fill="#3c4348"/><polygon points="-32,4 -19,4 101,123 88,123" fill="#3c4348"/><polygon points="0,4 13,4 133,123 120,123" fill="#3c4348"/><polygon points="32,4 45,4 165,123 152,123" fill="#3c4348"/><polygon points="64,4 77,4 197,123 184,123" fill="#3c4348"/><polygon points="96,4 109,4 229,123 216,123" fill="#3c4348"/><polygon points="128,4 141,4 261,123 248,123" fill="#3c4348"/><polygon points="160,4 173,4 293,123 280,123" fill="#3c4348"/><polygon points="192,4 205,4 325,123 312,123" fill="#3c4348"/><polygon points="224,4 237,4 357,123 344,123" fill="#3c4348"/><rect x="0" y="0" width="128" height="4" fill="#737976"/><rect x="0" y="124" width="128" height="4" fill="#737976"/><rect x="0" y="0" width="4" height="128" fill="#737976"/><rect x="124" y="0" width="4" height="128" fill="#737976"/></svg>
